# xmcd
#
# Track frame offsets:
#        150
#        7550
#        15107
#        20332
#        26190
#        34460
#        40750
#        49637
#        56855
#        63260
#        73770
#        84897
#        93847
#        100252
#        107102
#        111677
#        119625
#        128625
#        135375
#        142755
#        149512
#        158027
#        165932
#        174662
#        181765
#        188210
#        196807
#        206367
#        214910
#        224295
#        231490
#        239390
#        247342
#        255985
#        262700
#        267562
#        273382
#        279157
#        285625
#        291260
#
# Disc length: 4022 seconds
#
# Revision: 3
# Processed by: cddbd v1.5.1PL2 Copyright (c) Steve Scherf et al.
# Submitted via: ExactAudioCopy v0.95b2
#
DISCID=400fb428
DTITLE=Various Artist - avex dancenet '96 in VELFARE [CD1 INTERNATIONAL SI
DTITLE=DE)
DYEAR=1996
DGENRE=Other
TTITLE0=TAKE ME UP TO HEAVEN - GTS feat. CEYBIL JEFFERIES
TTITLE1=GOT TO BE REAL '95 - CHERYL LYNN
TTITLE2=KEEP LOVE TOGETHER - LOVE TO INFINITY
TTITLE3=I MUST BE FREE - KYM SIMS
TTITLE4=WAITING HOPEFULLY - D*NOTE
TTITLE5=JUNGLIST MASSIVE - MC DET
TTITLE6=LOVE GONE - VIVEEN WRAY AND THE URBAN SOUL SELECTIVE
TTITLE7=HORIZONS - ELISABETH TROY feat. MARK ANTHONI
TTITLE8=THE ONLY LOVE - JAKI GRAHAM
TTITLE9=SAY YEAH! - ELISHA
TTITLE10=SHE - THRILLER U
TTITLE11=FRIENDLY PRESSURE - JHELISA
TTITLE12=STAYIN' ALIVE - N-TRANCE feat. RICARDO DA FORCE
TTITLE13=EVERYBODY BE SOMEBODY - RUFFNECK
TTITLE14=A POSITIVE VIBRATION - BLACK BOX
TTITLE15=ARE YOU READY FOR SOME MORE ?  - REAL 2 REAL feat. THE MAD ST
TTITLE15=UNTMAN
TTITLE16=YOUR LOVE - INNER CITY
TTITLE17=U SURE DO - STRIKE
TTITLE18=I LOVE U BABY - THE ORIGINAL
TTITLE19=DO WATCHA DO - HYPER GO GO feat. ADEVA
TTITLE20=SANTA MARIA - TATJANA
TTITLE21=STEPPING STONE - PJ and DUNCAN
TTITLE22=BEAT IT - J.K.
TTITLE23=RESCUE ME - EUROGROOVE guest vocal DANNII MINOGUE
TTITLE24=ABC and D - BLUE BANBOO
TTITLE25=CAN I KICK IT ? - JOHN ROBINSON
TTITLE26=EVERYBODY - CLOCK
TTITLE27=HANGIN' ON TO LOVE - 49ers feat. ANN MARIE SMITH
TTITLE28=I NEED YOUR LOVE - CAPPELLA
TTITLE29=DON'T STOP (WIGGLE WIGGLE) - OUTHERE BROTHERS
TTITLE30=FIRESTARTER - PRODIGY
TTITLE31=FEEL THE HYPE - EMPHASIS
TTITLE32=BABY BABY ・・・ DON'T STOP ! - MAXIMIZOR
TTITLE33=SO HIGH - CHANNEL X
TTITLE34=TORA TORA TORA - DOMINO
TTITLE35=DANCING IN THE JUNGLE - NIKITA JR.
TTITLE36=SEVENTIES - MEGA NRG MAN
TTITLE37=HEY HEY BABY CRY - DEE DEE
TTITLE38=LONELY NIGHT - HELENA
TTITLE39=MONEY GO ! - MARKO POLO
EXTD=YEAR: 1996
EXTT0=
EXTT1=
EXTT2=
EXTT3=
EXTT4=
EXTT5=
EXTT6=
EXTT7=
EXTT8=
EXTT9=
EXTT10=
EXTT11=
EXTT12=
EXTT13=
EXTT14=
EXTT15=
EXTT16=
EXTT17=
EXTT18=
EXTT19=
EXTT20=
EXTT21=
EXTT22=
EXTT23=
EXTT24=
EXTT25=
EXTT26=
EXTT27=
EXTT28=
EXTT29=
EXTT30=
EXTT31=
EXTT32=
EXTT33=
EXTT34=
EXTT35=
EXTT36=
EXTT37=
EXTT38=
EXTT39=
PLAYORDER=
